<?xml version="1.0" encoding="UTF-8" standalone="no"?>
<!DOCTYPE svg PUBLIC "-//W3C//DTD SVG 1.1//EN"
 "http://www.w3.org/Graphics/SVG/1.1/DTD/svg11.dtd">
<!-- Generated by graphviz version 2.26.3 (20100126.1600)
 -->
<!-- Title: _anonymous_0 Pages: 1 -->
<svg width="800pt" height="312pt"
 viewBox="0.00 0.00 800.00 312.00" xmlns="http://www.w3.org/2000/svg" xmlns:xlink="http://www.w3.org/1999/xlink">
<g id="graph1" class="graph" transform="scale(1 1) rotate(0) translate(4 308)">
<title>_anonymous_0</title>
<polygon fill="white" stroke="white" points="-4,5 -4,-308 797,-308 797,5 -4,5"/>
<text text-anchor="middle" x="396" y="-9.4" font-family="Times Roman,serif" font-size="14.00">Debian Package Dependency Graph</text>
<!-- n0 -->
<g id="node1" class="node"><title>n0</title>
<polygon fill="none" stroke="black" points="102,-230 4.9738e-14,-230 0,-186 102,-186 102,-230"/>
<text text-anchor="middle" x="51" y="-213.4" font-family="Times Roman,serif" font-size="14.00">arthur 0.2&#45;2</text>
<text text-anchor="middle" x="51" y="-195.4" font-family="Times Roman,serif" font-size="14.00">i386</text>
</g>
<!-- n1 -->
<g id="node2" class="node"><title>n1</title>
<polygon fill="none" stroke="black" points="248,-230 120,-230 120,-186 248,-186 248,-230"/>
<text text-anchor="middle" x="184" y="-213.4" font-family="Times Roman,serif" font-size="14.00">arthur 1.0033.0</text>
<text text-anchor="middle" x="184" y="-195.4" font-family="Times Roman,serif" font-size="14.00">win32&#45;i386</text>
</g>
<!-- n12 -->
<g id="node16" class="node"><title>n12</title>
<ellipse fill="none" stroke="black" cx="84" cy="-285" rx="38.1838" ry="18.3848"/>
<text text-anchor="middle" x="84" y="-281.4" font-family="Times Roman,serif" font-size="14.00">wpkg</text>
</g>
<!-- n1&#45;&gt;n12 -->
<g id="edge8" class="edge"><title>n1&#45;&gt;n12</title>
<path fill="none" stroke="#8888ff" stroke-width="2" d="M155.344,-230.065C141.866,-240.443 125.84,-252.783 112.395,-263.136"/>
<polygon fill="#8888ff" stroke="#8888ff" points="110.191,-260.415 104.403,-269.29 114.462,-265.962 110.191,-260.415"/>
</g>
<!-- n13 -->
<g id="node30" class="node"><title>n13</title>
<ellipse fill="none" stroke="black" cx="200" cy="-285" rx="60.1041" ry="18.3848"/>
<text text-anchor="middle" x="200" y="-281.4" font-family="Times Roman,serif" font-size="14.00">imaginary</text>
</g>
<!-- n1&#45;&gt;n13 -->
<g id="edge36" class="edge"><title>n1&#45;&gt;n13</title>
<path fill="none" stroke="#ff8888" stroke-width="2" d="M188.628,-230.272C190.656,-240.03 193.037,-251.491 195.095,-261.396"/>
<polygon fill="#ff8888" stroke="#ff8888" points="200.831,-264.421 191.04,-266.455 190.633,-264.497 200.424,-262.463 200.831,-264.421"/>
<polyline fill="none" stroke="#ff8888" points="196.139,-266.417 195.121,-261.522 "/>
<text text-anchor="middle" x="198.433" y="-249.984" font-family="Times Roman,serif" font-size="8.00" fill="#990033">version &gt;= 1.0.3</text>
</g>
<!-- n2 -->
<g id="node3" class="node"><title>n2</title>
<polygon fill="none" stroke="black" points="654,-230 534,-230 534,-186 654,-186 654,-230"/>
<text text-anchor="middle" x="594" y="-213.4" font-family="Times Roman,serif" font-size="14.00">arthur 1.299&#45;2</text>
<text text-anchor="middle" x="594" y="-195.4" font-family="Times Roman,serif" font-size="14.00">i386</text>
</g>
<!-- n3 -->
<g id="node4" class="node"><title>n3</title>
<polygon fill="none" stroke="black" points="792,-230 672,-230 672,-186 792,-186 792,-230"/>
<text text-anchor="middle" x="732" y="-213.4" font-family="Times Roman,serif" font-size="14.00">arthur 1.299&#45;2</text>
<text text-anchor="middle" x="732" y="-195.4" font-family="Times Roman,serif" font-size="14.00">win32&#45;i386</text>
</g>
<!-- n4 -->
<g id="node5" class="node"><title>n4</title>
<polygon fill="none" stroke="black" points="442,-150 336,-150 336,-106 442,-106 442,-150"/>
<text text-anchor="middle" x="389" y="-133.4" font-family="Times Roman,serif" font-size="14.00">foo&#45;bar 1.0.2</text>
<text text-anchor="middle" x="389" y="-115.4" font-family="Times Roman,serif" font-size="14.00">win32</text>
</g>
<!-- n4&#45;&gt;n0 -->
<g id="edge14" class="edge"><title>n4&#45;&gt;n0</title>
<path fill="none" stroke="#aaaaaa" d="M335.923,-136.698C281.709,-146.111 195.06,-162.618 112.064,-185.867"/>
<polygon fill="#aaaaaa" stroke="#aaaaaa" points="110.889,-182.562 102.225,-188.66 112.8,-189.296 110.889,-182.562"/>
</g>
<!-- n4&#45;&gt;n1 -->
<g id="edge16" class="edge"><title>n4&#45;&gt;n1</title>
<path fill="none" stroke="#aaaaaa" d="M335.941,-148.706C309.729,-158.935 277.844,-171.378 250.064,-182.219"/>
<polygon fill="#aaaaaa" stroke="#aaaaaa" points="248.469,-179.084 240.426,-185.98 251.014,-185.605 248.469,-179.084"/>
</g>
<!-- n4&#45;&gt;n2 -->
<g id="edge18" class="edge"><title>n4&#45;&gt;n2</title>
<path fill="none" stroke="#aaaaaa" d="M442.059,-148.706C468.271,-158.935 500.156,-171.378 527.936,-182.219"/>
<polygon fill="#aaaaaa" stroke="#aaaaaa" points="526.986,-185.605 537.574,-185.98 529.531,-179.084 526.986,-185.605"/>
</g>
<!-- n4&#45;&gt;n3 -->
<g id="edge20" class="edge"><title>n4&#45;&gt;n3</title>
<path fill="none" stroke="#aaaaaa" d="M442.142,-139.179C511.137,-153.702 626.256,-177.966 662.102,-186.113"/>
<polygon fill="#aaaaaa" stroke="#aaaaaa" points="661.354,-189.533 671.893,-188.445 662.976,-182.724 661.354,-189.533"/>
</g>
<!-- n7 -->
<g id="node8" class="node"><title>n7</title>
<polygon fill="none" stroke="black" points="378,-230 266,-230 266,-186 378,-186 378,-230"/>
<text text-anchor="middle" x="322" y="-213.4" font-family="Times Roman,serif" font-size="14.00">zuperlib 1.4.7</text>
<text text-anchor="middle" x="322" y="-195.4" font-family="Times Roman,serif" font-size="14.00">win32</text>
</g>
<!-- n4&#45;&gt;n7 -->
<g id="edge10" class="edge"><title>n4&#45;&gt;n7</title>
<path fill="none" stroke="#aaaaaa" d="M370.337,-150.284C363.149,-158.866 354.82,-168.812 347.122,-178.004"/>
<polygon fill="#aaaaaa" stroke="#aaaaaa" points="344.301,-175.921 340.563,-185.835 349.667,-180.416 344.301,-175.921"/>
</g>
<!-- n8 -->
<g id="node9" class="node"><title>n8</title>
<polygon fill="none" stroke="black" points="516,-230 396,-230 396,-186 516,-186 516,-230"/>
<text text-anchor="middle" x="456" y="-213.4" font-family="Times Roman,serif" font-size="14.00">zuperlib 2.0.0a</text>
<text text-anchor="middle" x="456" y="-195.4" font-family="Times Roman,serif" font-size="14.00">win32</text>
</g>
<!-- n4&#45;&gt;n8 -->
<g id="edge12" class="edge"><title>n4&#45;&gt;n8</title>
<path fill="none" stroke="#aaaaaa" d="M407.663,-150.284C414.851,-158.866 423.18,-168.812 430.878,-178.004"/>
<polygon fill="#aaaaaa" stroke="#aaaaaa" points="428.333,-180.416 437.437,-185.835 433.699,-175.921 428.333,-180.416"/>
</g>
<!-- n5 -->
<g id="node6" class="node"><title>n5</title>
<polygon fill="none" stroke="black" points="648,-150 536,-150 536,-106 648,-106 648,-150"/>
<text text-anchor="middle" x="592" y="-133.4" font-family="Times Roman,serif" font-size="14.00">foo&#45;bar 1.0.2</text>
<text text-anchor="middle" x="592" y="-115.4" font-family="Times Roman,serif" font-size="14.00">win64&#45;amd64</text>
</g>
<!-- n6 -->
<g id="node7" class="node"><title>n6</title>
<polygon fill="none" stroke="black" points="479,-70 379,-70 379,-26 479,-26 479,-70"/>
<text text-anchor="middle" x="429" y="-53.4" font-family="Times Roman,serif" font-size="14.00">sample4 3.0</text>
<text text-anchor="middle" x="429" y="-35.4" font-family="Times Roman,serif" font-size="14.00">win32&#45;i386</text>
</g>
<!-- n6&#45;&gt;n0 -->
<g id="edge22" class="edge"><title>n6&#45;&gt;n0</title>
<path fill="none" stroke="#aaaaaa" d="M378.853,-63.4138C344.908,-74.2836 299.269,-89.7519 260,-106 204.562,-128.938 143.064,-159.614 101.221,-181.316"/>
<polygon fill="#aaaaaa" stroke="#aaaaaa" points="99.5904,-178.219 92.3373,-185.942 102.823,-184.428 99.5904,-178.219"/>
<text text-anchor="middle" x="102.328" y="-178.804" font-family="Times Roman,serif" font-size="8.00" fill="#990033">version &gt;&gt; 1.34</text>
</g>
<!-- n6&#45;&gt;n1 -->
<g id="edge24" class="edge"><title>n6&#45;&gt;n1</title>
<path fill="none" stroke="#aaaaaa" d="M387.732,-70.202C368.94,-80.6326 346.573,-93.5012 327,-106 290.157,-129.527 249.737,-158.689 221.298,-179.797"/>
<polygon fill="#aaaaaa" stroke="#aaaaaa" points="219.169,-177.018 213.241,-185.799 223.352,-182.632 219.169,-177.018"/>
<text text-anchor="middle" x="223.034" y="-177.074" font-family="Times Roman,serif" font-size="8.00" fill="#990033">version &gt;&gt; 1.34</text>
</g>
<!-- n6&#45;&gt;n2 -->
<g id="edge26" class="edge"><title>n6&#45;&gt;n2</title>
<path fill="none" stroke="#aaaaaa" d="M439.13,-70.0467C450.182,-92.2888 469.6,-126.599 494,-150 506.355,-161.849 521.579,-172.242 536.388,-180.832"/>
<polygon fill="#aaaaaa" stroke="#aaaaaa" points="535.089,-184.116 545.525,-185.945 538.507,-178.008 535.089,-184.116"/>
<text text-anchor="middle" x="539.68" y="-171.131" font-family="Times Roman,serif" font-size="8.00" fill="#990033">version &gt;&gt; 1.34</text>
</g>
<!-- n6&#45;&gt;n3 -->
<g id="edge28" class="edge"><title>n6&#45;&gt;n3</title>
<path fill="none" stroke="#aaaaaa" d="M453.651,-70.2634C465.006,-80.8127 478.485,-93.76 490,-106 507.508,-124.61 505.423,-136.316 527,-150 577.224,-181.852 600.64,-169.846 662.073,-185.918"/>
<polygon fill="#aaaaaa" stroke="#aaaaaa" points="661.272,-189.328 671.843,-188.625 663.141,-182.582 661.272,-189.328"/>
<text text-anchor="middle" x="664.238" y="-175.432" font-family="Times Roman,serif" font-size="8.00" fill="#990033">version &gt;&gt; 1.34</text>
</g>
<!-- n6&#45;&gt;n4 -->
<g id="edge30" class="edge"><title>n6&#45;&gt;n4</title>
<path fill="none" stroke="#aaaaaa" d="M417.858,-70.2845C413.74,-78.5197 408.995,-88.0105 404.557,-96.8864"/>
<polygon fill="#aaaaaa" stroke="#aaaaaa" points="401.424,-95.3255 400.082,-105.835 407.685,-98.456 401.424,-95.3255"/>
</g>
<!-- n6&#45;&gt;n5 -->
<g id="edge32" class="edge"><title>n6&#45;&gt;n5</title>
<path fill="none" stroke="#aaaaaa" d="M473.972,-70.0721C493.837,-79.8216 517.352,-91.3628 538.144,-101.568"/>
<polygon fill="#aaaaaa" stroke="#aaaaaa" points="536.656,-104.736 547.175,-106 539.74,-98.452 536.656,-104.736"/>
</g>
<!-- n9 -->
<g id="node10" class="node"><title>n9</title>
<ellipse fill="none" stroke="black" cx="305" cy="-285" rx="27" ry="18.3848"/>
<text text-anchor="middle" x="305" y="-281.4" font-family="Times Roman,serif" font-size="14.00">zip</text>
</g>
<!-- n7&#45;&gt;n9 -->
<g id="edge2" class="edge"><title>n7&#45;&gt;n9</title>
<path fill="none" stroke="#cccccc" stroke-dasharray="5,2" d="M317.083,-230.272C315.25,-238.572 313.146,-248.104 311.212,-256.863"/>
<polygon fill="#cccccc" stroke="#cccccc" points="307.785,-256.15 309.047,-266.67 314.621,-257.659 307.785,-256.15"/>
</g>
<!-- n10 -->
<g id="node12" class="node"><title>n10</title>
<ellipse fill="none" stroke="black" cx="379" cy="-285" rx="29.1951" ry="18.3848"/>
<text text-anchor="middle" x="379" y="-281.4" font-family="Times Roman,serif" font-size="14.00">bz2</text>
</g>
<!-- n7&#45;&gt;n10 -->
<g id="edge4" class="edge"><title>n7&#45;&gt;n10</title>
<path fill="none" stroke="#cccccc" stroke-dasharray="5,2" d="M338.487,-230.272C345.334,-239.521 353.313,-250.301 360.371,-259.835"/>
<polygon fill="#cccccc" stroke="#cccccc" points="357.772,-262.207 366.535,-268.162 363.398,-258.042 357.772,-262.207"/>
</g>
<!-- n11 -->
<g id="node14" class="node"><title>n11</title>
<ellipse fill="none" stroke="black" cx="455" cy="-285" rx="28.9914" ry="18.3848"/>
<text text-anchor="middle" x="455" y="-281.4" font-family="Times Roman,serif" font-size="14.00">libz</text>
</g>
<!-- n7&#45;&gt;n11 -->
<g id="edge6" class="edge"><title>n7&#45;&gt;n11</title>
<path fill="none" stroke="#cccccc" stroke-dasharray="5,2" d="M360.112,-230.065C380.562,-241.904 405.42,-256.296 424.563,-267.379"/>
<polygon fill="#cccccc" stroke="#cccccc" points="423.049,-270.546 433.457,-272.528 426.556,-264.488 423.049,-270.546"/>
</g>
<!-- n7&#45;&gt;n13 -->
<g id="edge34" class="edge"><title>n7&#45;&gt;n13</title>
<path fill="none" stroke="#ff8888" d="M287.04,-230.065C270.761,-240.339 251.437,-252.535 235.137,-262.823"/>
<polygon fill="#ff8888" stroke="#ff8888" points="233.02,-260.021 226.431,-268.318 236.756,-265.941 233.02,-260.021"/>
<text text-anchor="middle" x="236.351" y="-260.355" font-family="Times Roman,serif" font-size="8.00" fill="#990033">version &gt;&gt; 3.0</text>
</g>
</g>
</svg>
